HIERARCHY
ROOT Hips
{
	OFFSET 0.000000 0.000000 0.000000
	CHANNELS 6 Xposition Yposition Zposition Zrotation Yrotation Xrotation 
	JOINT LHipJoint
	{
		OFFSET 0.000000 0.000000 0.000000
		CHANNELS 3 Zrotation Yrotation Xrotation
		JOINT LeftUpLeg
		{
			OFFSET 1.363060 -1.794630 0.839290
			CHANNELS 3 Zrotation Yrotation Xrotation
			JOINT LeftLeg
			{
				OFFSET 2.448110 -6.726130 0.000000
				CHANNELS 3 Zrotation Yrotation Xrotation
				JOINT LeftFoot
				{
					OFFSET 2.562200 -7.039590 0.000000
					CHANNELS 3 Zrotation Yrotation Xrotation
					JOINT LeftToeBase
					{
						OFFSET 0.157640 -0.433110 2.322550
						CHANNELS 3 Zrotation Yrotation Xrotation
						End Site
						{
							OFFSET 0.000000 0.000000 0.000000
						}
					}
				}
			}
		}
	}
	JOINT RHipJoint
	{
		OFFSET 0.000000 0.000000 0.000000
		CHANNELS 3 Zrotation Yrotation Xrotation
		JOINT RightUpLeg
		{
			OFFSET -1.305520 -1.794630 0.839290
			CHANNELS 3 Zrotation Yrotation Xrotation
			JOINT RightLeg
			{
				OFFSET -2.542530 -6.985550 0.000000
				CHANNELS 3 Zrotation Yrotation Xrotation
				JOINT RightFoot
				{
					OFFSET -2.568260 -7.056230 0.000000
					CHANNELS 3 Zrotation Yrotation Xrotation
					JOINT RightToeBase
					{
						OFFSET -0.164730 -0.452590 2.363150
						CHANNELS 3 Zrotation Yrotation Xrotation
						End Site
						{
							OFFSET 0.000000 0.000000 0.000000
						}
					}
				}
			}
		}
	}
	JOINT LowerBack
	{
		OFFSET 0.000000 0.000000 0.000000
		CHANNELS 3 Zrotation Yrotation Xrotation
		JOINT Spine
		{
			OFFSET 0.028270 2.035590 -0.193380
			CHANNELS 3 Zrotation Yrotation Xrotation
			JOINT Spine1
			{
				OFFSET 0.056720 2.048850 -0.042750
				CHANNELS 3 Zrotation Yrotation Xrotation
				JOINT Neck
				{
					OFFSET 0.000000 0.000000 0.000000
					CHANNELS 3 Zrotation Yrotation Xrotation
					JOINT Neck1
					{
						OFFSET -0.054170 1.746240 0.172020
						CHANNELS 3 Zrotation Yrotation Xrotation
						JOINT Head
						{
							OFFSET 0.104070 1.761360 -0.123970
							CHANNELS 3 Zrotation Yrotation Xrotation
							End Site
							{
								OFFSET 0.000000 0.000000 0.000000
							}
						}
					}
				}
				JOINT LeftShoulder
				{
					OFFSET 0.000000 0.000000 0.000000
					CHANNELS 3 Zrotation Yrotation Xrotation
					JOINT LeftArm
					{
						OFFSET 3.362410 1.200890 -0.311210
						CHANNELS 3 Zrotation Yrotation Xrotation
						JOINT LeftForeArm
						{
							OFFSET 4.983000 -0.000000 -0.000000
							CHANNELS 3 Zrotation Yrotation Xrotation
							JOINT LeftHand
							{
								OFFSET 3.483560 -0.000000 -0.000000
								CHANNELS 3 Zrotation Yrotation Xrotation
								JOINT LeftFingerBase
								{
									OFFSET 0.000000 0.000000 0.000000
									CHANNELS 3 Zrotation Yrotation Xrotation
									JOINT LeftHandIndex1
									{
										OFFSET 0.715260 -0.000000 -0.000000
										CHANNELS 3 Zrotation Yrotation Xrotation
										End Site
										{
											OFFSET 0.000000 0.000000 0.000000
										}
									}
								}
								JOINT LThumb
								{
									OFFSET 0.000000 0.000000 0.000000
									CHANNELS 3 Zrotation Yrotation Xrotation
									End Site
									{
										OFFSET 0.000000 0.000000 0.000000
									}
								}
							}
						}
					}
				}
				JOINT RightShoulder
				{
					OFFSET 0.000000 0.000000 0.000000
					CHANNELS 3 Zrotation Yrotation Xrotation
					JOINT RightArm
					{
						OFFSET -3.136600 1.374050 -0.404650
						CHANNELS 3 Zrotation Yrotation Xrotation
						JOINT RightForeArm
						{
							OFFSET -5.241900 -0.000000 -0.000000
							CHANNELS 3 Zrotation Yrotation Xrotation
							JOINT RightHand
							{
								OFFSET -3.444170 -0.000000 -0.000000
								CHANNELS 3 Zrotation Yrotation Xrotation
								JOINT RightFingerBase
								{
									OFFSET 0.000000 0.000000 0.000000
									CHANNELS 3 Zrotation Yrotation Xrotation
									JOINT RightHandIndex1
									{
										OFFSET -0.622530 -0.000000 -0.000000
										CHANNELS 3 Zrotation Yrotation Xrotation
										End Site
										{
											OFFSET 0.000000 0.000000 0.000000
										}
									}
								}
								JOINT RThumb
								{
									OFFSET 0.000000 0.000000 0.000000
									CHANNELS 3 Zrotation Yrotation Xrotation
									End Site
									{
										OFFSET 0.000000 0.000000 0.000000
									}
								}
							}
						}
					}
				}
			}
		}
	}
}
MOTION
Frames: 10
Frame Time: 0.008333
-20.896295 15.817841 -0.539673 9.265871 85.830895 37.511393 -8.313902 -2.085191 4.208560 -4.024312 -7.997973 -70.542735 -0.636378 1.924494 38.562175 2.084954 10.109093 2.186209 2.695800 -0.000000 -36.887999 10.725652 -3.333569 -0.590810 4.065593 -3.335856 3.929571 2.193927 0.373358 5.611381 -0.407183 -0.611584 -5.496547 -0.130400 -0.000000 -78.238899 -10.066390 1.795232 -2.523661 -2.632068 2.335494 -2.944936 -3.923999 2.226717 3.058179 7.878099 -4.814655 -7.550585 -1.612339 -0.114352 -0.147007 0.000000 0.000000 0.000000 -3.849114 20.695130 2.259574 -46.054558 19.203329 8.570134 -4.991127 -24.615860 -0.018509 -7.973086 1.228339 -0.091066 -0.169701 -0.107692 -0.000000 0.000000 0.000000 0.000000 0.000000 0.000000 0.000000 7.315718 0.087199 2.024871 37.915338 41.660173 30.160437 0.499932 80.724417 0.032528 6.950960 9.133660 0.590143 -0.105886 -0.412552 0.000000 0.000000 0.000000 0.000000 0.000000 0.000000 0.000000 
-20.685120 15.823986 -0.560159 10.089274 85.905616 38.411419 -8.279129 -2.079850 4.064997 -4.580327 -7.837997 -70.520768 -0.598332 2.032387 39.962582 2.084628 10.066142 1.758809 2.586100 -0.000000 -36.187799 10.859424 -3.480713 -0.554526 3.723673 -3.370878 3.532791 2.096387 0.117325 7.071612 -0.354477 -0.592327 -3.747680 -0.191600 0.000000 -80.859200 -10.375252 1.789971 -2.475950 -2.695583 2.350638 -2.949690 -3.909379 2.240511 3.019000 7.928435 -4.805444 -7.560577 -1.589554 -0.112045 -0.153450 0.000000 0.000000 0.000000 -4.228950 20.507263 2.254734 -46.186359 18.423495 8.650972 -4.996152 -24.500126 -0.018727 -8.068995 1.339405 -0.099771 -0.168330 -0.105802 -0.000000 0.000000 0.000000 0.000000 0.000000 0.000000 0.000000 7.219044 0.085892 2.054885 38.287483 40.320811 30.852792 0.517291 80.643051 0.033143 7.044674 9.065188 0.592962 -0.101543 -0.405084 0.000000 0.000000 0.000000 0.000000 0.000000 0.000000 0.000000 
-20.474981 15.834773 -0.582017 10.808231 85.973061 39.172333 -8.251587 -2.061620 3.914546 -5.156410 -7.644442 -70.351782 -0.584717 2.124480 41.217616 2.078803 9.956883 1.065573 2.415500 0.000000 -35.513200 10.988048 -3.621908 -0.541961 3.395299 -3.493256 3.022065 1.982304 -0.154404 8.728331 -0.316243 -0.602788 -1.818198 -0.246700 -0.000000 -83.384499 -10.642158 1.783470 -2.397670 -2.750315 2.361959 -2.949888 -3.898650 2.250910 2.971383 7.955738 -4.782338 -7.559752 -1.569323 -0.110070 -0.156993 0.000000 0.000000 0.000000 -4.640426 20.290026 2.249497 -46.331542 17.585499 8.763825 -4.999400 -24.401685 -0.018882 -8.163203 1.445796 -0.108275 -0.166958 -0.103687 -0.000000 0.000000 0.000000 0.000000 0.000000 0.000000 0.000000 7.102978 0.096161 2.075885 38.735305 38.928718 31.586862 0.540566 80.414486 0.033574 7.135404 9.002570 0.595584 -0.097001 -0.396359 0.000000 0.000000 0.000000 0.000000 0.000000 0.000000 0.000000 
-20.266162 15.849913 -0.605531 11.395668 86.034395 39.767093 -8.235500 -2.031062 3.762507 -5.730536 -7.427873 -70.039528 -0.591602 2.201052 42.327744 2.068979 9.791908 0.147569 2.195901 -0.000000 -34.898700 11.108188 -3.753921 -0.554171 3.085761 -3.712690 2.393227 1.847586 -0.437494 10.581146 -0.299554 -0.667824 0.305265 -0.298899 -0.000000 -85.709900 -10.860843 1.773646 -2.292782 -2.794967 2.366881 -2.945528 -3.893385 2.255314 2.918211 7.962197 -4.746129 -7.549537 -1.553015 -0.108527 -0.157902 0.000000 0.000000 0.000000 -5.079633 20.053303 2.243701 -46.494217 16.691850 8.904540 -5.000408 -24.329449 -0.018962 -8.253322 1.545817 -0.116474 -0.165594 -0.101346 -0.000000 0.000000 0.000000 0.000000 0.000000 0.000000 0.000000 6.977380 0.115405 2.087922 39.238885 37.504596 32.342195 0.569905 80.037657 0.033840 7.236437 8.946864 0.599305 -0.092668 -0.386426 0.000000 0.000000 0.000000 0.000000 0.000000 0.000000 0.000000 
-20.059036 15.868899 -0.630518 11.941542 86.093109 40.286101 -8.227282 -1.987750 3.613843 -6.296131 -7.206620 -69.589822 -0.615495 2.260963 43.295724 2.057235 9.587875 -0.944112 1.942500 0.000000 -34.334900 11.228956 -3.871841 -0.593860 2.778331 -4.063634 1.620461 1.690205 -0.729172 12.664895 -0.307867 -0.778169 2.606922 -0.347700 -0.000000 -87.646800 -11.033825 1.756837 -2.163683 -2.829531 2.361830 -2.936678 -3.892241 2.250106 2.860721 7.946969 -4.702771 -7.530268 -1.539445 -0.107328 -0.156152 0.000000 0.000000 0.000000 -5.538857 19.796543 2.237883 -46.679461 15.754363 9.069839 -4.998528 -24.294899 -0.018937 -8.333809 1.635196 -0.123870 -0.164196 -0.098749 -0.000000 0.000000 0.000000 0.000000 0.000000 0.000000 0.000000 6.838953 0.134622 2.090480 39.791499 36.069820 33.115094 0.605638 79.507598 0.033879 7.330251 8.903283 0.603126 -0.088267 -0.375466 0.000000 0.000000 0.000000 0.000000 0.000000 0.000000 0.000000 
-19.853972 15.891331 -0.656842 12.496571 86.153485 40.784876 -8.224551 -1.932669 3.473731 -6.840446 -6.997874 -69.014841 -0.651770 2.303133 44.121579 2.046208 9.365263 -2.145708 1.672399 0.000000 -33.848900 11.354649 -3.969277 -0.658433 2.469703 -4.546255 0.697254 1.508147 -1.021953 14.977290 -0.348217 -0.954222 5.068162 -0.399300 0.000000 -88.992200 -11.161969 1.729692 -2.016759 -2.854074 2.343511 -2.923775 -3.895533 2.231932 2.801860 7.913796 -4.657524 -7.504158 -1.528977 -0.106478 -0.152276 0.000000 0.000000 0.000000 -6.007022 19.524285 2.232671 -46.894401 14.776269 9.249935 -4.993449 -24.302787 -0.018790 -8.400744 1.711978 -0.130162 -0.162742 -0.095853 -0.000000 0.000000 0.000000 0.000000 0.000000 0.000000 0.000000 6.695800 0.146120 2.084302 40.379026 34.646001 33.891166 0.647686 78.827135 0.033695 7.415698 8.874360 0.607048 -0.083847 -0.363648 0.000000 0.000000 0.000000 0.000000 0.000000 0.000000 0.000000 
-19.651189 15.916996 -0.684535 13.048190 86.219446 41.259335 -8.228155 -1.868290 3.347289 -7.344145 -6.814817 -68.331570 -0.695107 2.327262 44.804804 2.038601 9.145271 -3.391276 1.401500 -0.000000 -33.473500 11.482071 -4.039202 -0.741495 2.172673 -5.131576 -0.361565 1.302264 -1.303992 17.473976 -0.428959 -1.241251 7.663558 -0.472000 0.000000 -89.604500 -11.242393 1.689896 -1.861124 -2.868344 2.309504 -2.908221 -3.906031 2.198285 2.743445 7.869556 -4.604944 -7.472910 -1.523963 -0.106147 -0.146702 0.000000 0.000000 0.000000 -6.477660 19.244471 2.229105 -47.139293 13.756458 9.437592 -4.985409 -24.359654 -0.018527 -8.455475 1.777173 -0.135552 -0.161277 -0.092646 -0.000000 0.000000 0.000000 0.000000 0.000000 0.000000 0.000000 6.563573 0.155541 2.070483 40.986074 33.232558 34.630255 0.695423 78.015815 0.033409 7.532359 8.852193 0.613965 -0.080220 -0.350985 0.000000 0.000000 0.000000 0.000000 0.000000 0.000000 0.000000 
-19.450846 15.945373 -0.712824 13.755708 86.296087 41.874573 -8.226945 -1.794430 3.236368 -7.817528 -6.675453 -67.554422 -0.742332 2.331787 45.348415 2.036757 8.949945 -4.623477 1.142700 0.000000 -33.195900 11.625367 -4.073140 -0.839199 1.869550 -5.817921 -1.572138 1.079073 -1.569305 20.175529 -0.550415 -1.633370 10.307684 -0.576300 -0.000000 -89.194200 -11.286385 1.634213 -1.701094 -2.874070 2.257393 -2.890309 -3.920261 2.146669 2.686857 7.814670 -4.560209 -7.437920 -1.521673 -0.106100 -0.139784 0.000000 0.000000 0.000000 -6.931559 18.946331 2.228171 -47.427407 12.705529 9.616549 -4.974021 -24.462078 -0.018097 -8.489500 1.824595 -0.139336 -0.159703 -0.089017 -0.000000 0.000000 0.000000 0.000000 0.000000 0.000000 0.000000 6.436124 0.144253 2.049949 41.611458 31.857886 35.345387 0.748838 77.068985 0.032909 7.630036 8.845701 0.620184 -0.076389 -0.337846 0.000000 0.000000 0.000000 0.000000 0.000000 0.000000 0.000000 
-19.253356 15.976394 -0.741678 14.574747 86.385493 42.594939 -8.222771 -1.713924 3.143898 -8.245205 -6.585355 -66.702740 -0.788886 2.317702 45.754197 2.042535 8.796292 -5.792179 0.904701 0.000000 -33.030400 11.775736 -4.065432 -0.944155 1.582768 -6.556359 -2.903769 0.849162 -1.807135 23.014606 -0.713710 -2.175104 12.921545 -0.742500 -0.000000 -87.768400 -11.290435 1.562542 -1.544577 -2.871057 2.187007 -2.871856 -3.941426 2.076828 2.631664 7.755498 -4.512072 -7.399680 -1.524652 -0.106537 -0.131658 0.000000 0.000000 0.000000 -7.366536 18.635621 2.231122 -47.751900 11.620368 9.785725 -4.959978 -24.613608 -0.017523 -8.506799 1.856538 -0.141617 -0.158096 -0.084971 -0.000000 0.000000 0.000000 0.000000 0.000000 0.000000 0.000000 6.326493 0.126200 2.023466 42.247263 30.502917 35.988245 0.806995 76.014590 0.032334 7.756017 8.841719 0.628900 -0.073260 -0.324204 0.000000 0.000000 0.000000 0.000000 0.000000 0.000000 0.000000 
-19.058553 16.009772 -0.770283 15.609936 86.486914 43.529097 -8.206882 -1.626307 3.067908 -8.642145 -6.548128 -65.787377 -0.833299 2.285160 46.026143 2.056678 8.696785 -6.861981 0.692300 0.000000 -32.960900 11.939661 -4.012113 -1.051394 1.306411 -7.319117 -4.352121 0.625528 -2.016388 25.983544 -0.911342 -2.867983 15.377145 -0.989300 0.000000 -85.232900 -11.266925 1.474802 -1.393938 -2.861633 2.099145 -2.852833 -3.966518 1.989503 2.579112 7.694358 -4.476469 -7.359345 -1.530762 -0.107268 -0.122687 0.000000 0.000000 0.000000 -7.761922 18.297735 2.238266 -48.128873 10.508387 9.921672 -4.943157 -24.799071 -0.016759 -8.500264 1.867627 -0.141991 -0.156349 -0.080386 -0.000000 0.000000 0.000000 0.000000 0.000000 0.000000 0.000000 6.233445 0.083394 1.993536 42.888610 29.196805 36.575501 0.869631 74.849795 0.031596 7.858722 8.847476 0.636315 -0.069815 -0.310418 0.000000 0.000000 0.000000 0.000000 0.000000 0.000000 0.000000 
